<svg width="330" height="140" viewBox="0 0 330 140" fill="none" xmlns="http://www.w3.org/2000/svg">
  <rect width="330" height="140" fill="#F8F0E4"/>
  <rect x="16" y="28" width="80" height="80" rx="26" fill="url(#paint0_linear_1_2)"/>
  <path d="M41.564 82V53.92H46.22V77.92H57.98V82H41.564Z" fill="#FFF4E8"/>
  <path d="M64.2921 82V53.92H81.9881V57.984H68.9481V65.68H79.9721V69.616H68.9481V77.936H82.5481V82H64.2921Z" fill="#FFF4E8"/>
  <path d="M119.24 74V53.92H123.256V74C123.256 76.1013 123.757 77.664 124.76 78.688C125.784 79.712 127.197 80.224 129 80.224C130.824 80.224 132.227 79.712 133.208 78.688C134.211 77.664 134.712 76.1013 134.712 74V53.92H138.664V74C138.664 77.3387 137.811 79.8827 136.104 81.632C134.419 83.36 132.051 84.224 129 84.224C125.949 84.224 123.571 83.36 121.864 81.632C120.115 79.8827 119.24 77.3387 119.24 74Z" fill="#17120E"/>
  <path d="M143.166 84V53.92H147.246L160.958 76.944V53.92H164.878V84H160.798L147.086 60.976V84H143.166Z" fill="#17120E"/>
  <path d="M171.124 84V53.92H181.908C185.673 53.92 188.575 54.7307 190.612 56.352C192.671 57.9733 193.7 60.3253 193.7 63.408C193.7 65.552 193.145 67.3227 192.036 68.72C190.948 70.1173 189.423 71.12 187.46 71.728L194.084 84H189.364L183.316 72.512H175.14V84H171.124ZM175.14 68.672H181.428C183.721 68.672 185.492 68.2027 186.74 67.264C188.009 66.304 188.644 64.9387 188.644 63.168C188.644 61.3973 188.02 60.064 186.772 59.168C185.524 58.2507 183.743 57.792 181.428 57.792H175.14V68.672Z" fill="#17120E"/>
  <path d="M198.683 84V53.92H217.403V57.728H202.699V66.96H216.443V70.768H202.699V80.192H217.787V84H198.683Z" fill="#17120E"/>
  <path d="M232.574 84V57.792H223.214V53.92H245.982V57.792H236.59V84H232.574Z" fill="#17120E"/>
  <path d="M247.558 84L258.918 53.92H264.23L275.558 84H271.286L268.454 76.304H254.566L251.734 84H247.558ZM255.91 72.656H267.11L261.51 57.376L255.91 72.656Z" fill="#17120E"/>
  <path d="M280.53 84V53.92H284.546V80.192H298.674V84H280.53Z" fill="#17120E"/>
  <path d="M119.618 101V93.48H121.258V99.56H124.258V101H119.618Z" fill="#A66A2A"/>
  <path d="M125.6 101V93.48H127.24V101H125.6Z" fill="#A66A2A"/>
  <path d="M129.252 101V93.48H134.196V94.92H130.892V96.632H133.884V98.024H130.892V101H129.252Z" fill="#A66A2A"/>
  <path d="M135.445 101V93.48H140.437V94.92H137.085V96.512H140.101V97.88H137.085V99.56H140.485V101H135.445Z" fill="#A66A2A"/>
  <path d="M143.351 101V93.48H144.991V101H143.351Z" fill="#A66A2A"/>
  <path d="M147.003 101V93.48H148.703L151.847 98.528V93.48H153.427V101H151.739L148.583 95.94V101H147.003Z" fill="#A66A2A"/>
  <path d="M157.964 101.144C157.388 101.144 156.856 101.045 156.368 100.844C155.888 100.636 155.476 100.344 155.132 99.968C154.796 99.592 154.536 99.152 154.352 98.648C154.176 98.144 154.088 97.592 154.088 96.992C154.088 96.4 154.18 95.852 154.364 95.348C154.548 94.836 154.812 94.392 155.156 94.016C155.508 93.64 155.928 93.348 156.416 93.14C156.912 92.932 157.464 92.828 158.072 92.828C158.848 92.828 159.504 92.98 160.04 93.284C160.584 93.588 161 94.004 161.288 94.532L159.996 95.288C159.828 94.968 159.58 94.72 159.252 94.544C158.932 94.36 158.588 94.268 158.22 94.268C157.836 94.268 157.496 94.34 157.2 94.484C156.904 94.628 156.656 94.828 156.456 95.084C156.256 95.34 156.104 95.64 156 95.984C155.896 96.32 155.844 96.684 155.844 97.076C155.844 97.484 155.9 97.86 156.012 98.204C156.132 98.54 156.296 98.832 156.504 99.08C156.712 99.328 156.96 99.524 157.248 99.668C157.544 99.812 157.868 99.884 158.22 99.884C158.588 99.884 158.94 99.8 159.276 99.632C159.612 99.456 159.9 99.208 160.14 98.888L161.516 99.56C161.172 100.08 160.704 100.5 160.112 100.82C159.528 101.036 158.812 101.144 157.964 101.144Z" fill="#A66A2A"/>
  <path d="M162.429 101V93.48H167.421V94.92H164.069V96.512H167.085V97.88H164.069V99.56H167.469V101H162.429Z" fill="#A66A2A"/>
  <defs>
    <linearGradient id="paint0_linear_1_2" x1="22" y1="34" x2="92" y2="102" gradientUnits="userSpaceOnUse">
      <stop stop-color="#173B4A"/>
      <stop offset="1" stop-color="#B8833D"/>
    </linearGradient>
  </defs>
</svg>
